# xmcd CD database file
#
# Track frame offsets:
#	150
#	17619
#	34059
#	48157
#	67601
#	80122
#	96266
#	110529
#	128353
#	143356
#	157915
#	171035
#	185907
#	198054
#
# Disc length: 2845 seconds
#
# Revision: 0
# Processed by: cddbd v1.5.2PL0 Copyright (c) Steve Scherf et al.
# Submitted via: ACXtractor (MTCDDB.DLL V2003.12.21)
#
DISCID=a50b1b0e
DTITLE=Lindsay Butler - Picks On Merle Haggard
DYEAR=2013
DGENRE=Country
TTITLE0=Silver Wings
TTITLE1=Today I Started Loving You Again
TTITLE2=Daddy Frank
TTITLE3=The Farmers Daughter
TTITLE4=Let's Chase Each Other Around The Room
TTITLE5=Sing Me Back Home
TTITLE6=Reasons To Quit
TTITLE7=Mamma's Hungry Eyes
TTITLE8=Okie From Muskogee
TTITLE9=To Each His Own
TTITLE10=The Roots of My Raising
TTITLE11=Wishing All these Old Things Were New
TTITLE12=I'm A Lonesome Fugitive
TTITLE13=Roses In The Winter
EXTD=ID3G:   2 YEAR: 2013
EXTT0=
EXTT1=
EXTT2=
EXTT3=
EXTT4=
EXTT5=
EXTT6=
EXTT7=
EXTT8=
EXTT9=
EXTT10=
EXTT11=
EXTT12=
EXTT13=
PLAYORDER=
